# xmcd CD database file
#
# Track frame offsets:
#	150
#	17267
#	40625
#	59317
#	80292
#	98829
#	117670
#	134737
#	158600
#	178627
#	194957
#	214834
#
# Disc length: 3115 seconds
#
# Revision: 0
# Processed by: cddbd v1.4PL0 Copyright (c) Steve Scherf et al.
# Submitted via: CDex 1.40Release
#
DISCID=a30c290c
DTITLE=Billy Hector and The Fairlanes - Cold Wind
DYEAR=1991
DGENRE=Blues
TTITLE0=Long Row To Hoe
TTITLE1=Slow Burn
TTITLE2=Cold Wind
TTITLE3=Where You Gonna Run To?
TTITLE4=I Can Give You Everything
TTITLE5=Can't Get Enough
TTITLE6=At Midnight
TTITLE7=Nadine
TTITLE8=Down "D", Dirty "D"
TTITLE9=The Name of Your Game
TTITLE10=Change Your Mind
TTITLE11=Where'd You Stay Last Night?
EXTD=YEAR: 1991 ID3G: 0
EXTT0=
EXTT1=
EXTT2=
EXTT3=
EXTT4=
EXTT5=
EXTT6=
EXTT7=
EXTT8=
EXTT9=
EXTT10=
EXTT11=
PLAYORDER=
